<?xml version="1.0" encoding="UTF-8" standalone="no"?>
<!-- Created with Inkscape (http://www.inkscape.org/) -->

<svg
   xmlns:dc="http://purl.org/dc/elements/1.1/"
   xmlns:cc="http://creativecommons.org/ns#"
   xmlns:rdf="http://www.w3.org/1999/02/22-rdf-syntax-ns#"
   xmlns:svg="http://www.w3.org/2000/svg"
   xmlns="http://www.w3.org/2000/svg"
   xmlns:sodipodi="http://sodipodi.sourceforge.net/DTD/sodipodi-0.dtd"
   xmlns:inkscape="http://www.inkscape.org/namespaces/inkscape"
   width="210mm"
   height="297mm"
   viewBox="0 0 210 297"
   version="1.1"
   id="svg8"
   inkscape:version="0.92.4 (5da689c313, 2019-01-14)"
   sodipodi:docname="rubber-squid-logo.svg">
  <defs
     id="defs2" />
  <sodipodi:namedview
     id="base"
     pagecolor="#ffffff"
     bordercolor="#666666"
     borderopacity="1.0"
     inkscape:pageopacity="0.0"
     inkscape:pageshadow="2"
     inkscape:zoom="0.89810848"
     inkscape:cx="28.329759"
     inkscape:cy="885.54277"
     inkscape:document-units="mm"
     inkscape:current-layer="layer2"
     showgrid="false"
     inkscape:window-width="3582"
     inkscape:window-height="2115"
     inkscape:window-x="245"
     inkscape:window-y="2147"
     inkscape:window-maximized="1" />
  <metadata
     id="metadata5">
    <rdf:RDF>
      <cc:Work
         rdf:about="">
        <dc:format>image/svg+xml</dc:format>
        <dc:type
           rdf:resource="http://purl.org/dc/dcmitype/StillImage" />
        <dc:title></dc:title>
      </cc:Work>
    </rdf:RDF>
  </metadata>
  <g
     inkscape:groupmode="layer"
     id="layer2"
     inkscape:label="Layer 2">
    <ellipse
       style="opacity:1;fill:#1e64ff;fill-opacity:0.51578944;fill-rule:evenodd;stroke:#000000;stroke-width:3;stroke-linecap:round;stroke-linejoin:round;stroke-miterlimit:4;stroke-dasharray:none;stroke-dashoffset:0;stroke-opacity:1"
       id="path4606"
       cx="101.04802"
       cy="140.71436"
       rx="83.961182"
       ry="102.37373" />
    <path
       style="fill:#ffffff;fill-opacity:0.42982459;fill-rule:evenodd;stroke:#0f0000;stroke-width:0.26458332px;stroke-linecap:butt;stroke-linejoin:miter;stroke-opacity:1"
       d="M 57.793259,167.87576 C 25.114226,130.2057 69.817796,67.600482 110.40648,59.157362 c 59.5409,31.276788 63.54871,91.898268 35.37063,106.917218 -11.26489,-13.62061 -27.94014,-2.31903 -37.46851,3.60845 -3.80441,2.36667 -8.27231,2.32997 -9.223912,0.95635 -10.75047,-9.04667 -22.276935,-19.31398 -41.291429,-2.76362 z"
       id="path4636"
       inkscape:connector-curvature="0"
       sodipodi:nodetypes="cccscc" />
    <ellipse
       style="fill:#67bbff;fill-opacity:1;fill-rule:evenodd;stroke:#000000;stroke-width:1.04381752;stroke-linecap:round;stroke-linejoin:round;stroke-miterlimit:4;stroke-dasharray:none;stroke-dashoffset:0;stroke-opacity:1"
       id="path4566"
       cx="125.36235"
       cy="68.02951"
       rx="10.758558"
       ry="8.1771975" />
    <ellipse
       ry="4.6209331"
       rx="6.1017337"
       cy="79.847191"
       cx="137.5507"
       id="ellipse4568"
       style="fill:#1eacff;fill-opacity:1;fill-rule:evenodd;stroke:#000000;stroke-width:1.04381752;stroke-linecap:round;stroke-linejoin:round;stroke-miterlimit:4;stroke-dasharray:none;stroke-dashoffset:0;stroke-opacity:1" />
    <path
       style="opacity:1;fill:#84d2ff;fill-opacity:1;fill-rule:evenodd;stroke:#000000;stroke-width:0.0920589px;stroke-linecap:butt;stroke-linejoin:miter;stroke-opacity:1"
       d="m 47.131013,164.39848 c -18.188461,7.87837 -18.985931,23.08533 -23.794893,36.60183 1.035439,12.96438 4.589753,24.64582 24.973413,27.75561 4.985217,-1.56219 5.490519,-5.553 7.800684,-8.56538 -1.229701,-7.33903 -1.748579,-14.46553 4.826323,-19.47106 -17.86543,-10.88487 -9.239016,-19.19705 -6.501947,-28.08116 z"
       id="path4570"
       inkscape:connector-curvature="0"
       sodipodi:nodetypes="ccccccc" />
    <path
       style="fill:#84d2ff;fill-opacity:1;fill-rule:evenodd;stroke:#000000;stroke-width:0.0920589px;stroke-linecap:butt;stroke-linejoin:miter;stroke-opacity:1"
       d="m 158.58539,169.7343 c 10.97302,2.98027 13.37715,11.32053 19.81844,17.13548 10.12253,26.66145 -3.40579,34.03106 -12.92534,40.24251 -11.64372,-4.11711 -17.46662,-10.53382 -25.48766,-16.08212 l 0.79366,-10.25988 c 7.8822,-5.28907 15.48967,-10.8156 11.98422,-25.94761 2.63342,-1.23272 4.21389,-3.168 5.81668,-5.08838 z"
       id="path4580"
       inkscape:connector-curvature="0"
       sodipodi:nodetypes="ccccccc" />
    <path
       style="fill:#84d2ff;fill-opacity:1;fill-rule:evenodd;stroke:#000000;stroke-width:0.0920589px;stroke-linecap:butt;stroke-linejoin:miter;stroke-opacity:1"
       d="m 79.355426,233.33718 c 2.81503,1.7127 5.55412,1.43507 7.13722,1.08691 3.42344,-2.58354 5.7148,-5.70661 7.66695,-8.99135 0.0541,-1.7543 -1.00498,-2.71275 -2.42312,-3.41455 -3.63091,3.95689 -6.92907,8.03712 -12.38105,11.31899 z"
       id="path4582"
       inkscape:connector-curvature="0"
       sodipodi:nodetypes="ccccc" />
    <path
       sodipodi:nodetypes="ccccc"
       inkscape:connector-curvature="0"
       id="path4584"
       d="m 125.67099,230.3482 c 2.81503,1.7127 3.78823,1.35233 5.37133,1.00417 3.42344,-2.58354 4.08781,-3.37331 6.03995,-6.65805 0.0541,-1.7543 -0.72719,-2.54727 -2.14534,-3.24907 -3.6309,3.95689 -3.81396,5.62108 -9.26594,8.90295 z"
       style="fill:#84d2ff;fill-opacity:1;fill-rule:evenodd;stroke:#000000;stroke-width:0.0920589px;stroke-linecap:butt;stroke-linejoin:miter;stroke-opacity:1" />
    <path
       style="fill:#e3f5ff;fill-opacity:1;fill-rule:evenodd;stroke:#000000;stroke-width:0.1739696;stroke-linecap:butt;stroke-linejoin:miter;stroke-miterlimit:4;stroke-dasharray:none;stroke-opacity:1"
       d="m 60.93654,200.71948 c -4.773889,0.44155 -9.023946,19.34674 -0.773053,25.99796 3.903821,3.14695 8.07663,4.31441 12.683949,6.42115 16.06405,2.59042 19.06622,-13.07 24.11816,-25.86635 l 2.07253,-0.87556 c 7.523384,25.32753 13.863584,22.21907 20.555714,25.41806 12.07726,-1.14252 16.28075,-12.8931 20.79382,-24.22659 l 0.39683,-6.81786 c -19.28285,3.75415 -28.73867,-3.48119 -32.46635,-12.19495 -1.58355,-3.70171 -1.2102,-7.71246 -0.86725,-11.10494 -3.90161,4.94517 -7.27456,6.09848 -9.682624,0.33095 3.962794,16.23429 -2.48853,18.0242 -7.22227,21.24792 -9.71613,1.67832 -19.321798,4.16275 -29.609456,1.67021 z"
       id="path4586"
       inkscape:connector-curvature="0"
       sodipodi:nodetypes="csccccccscccc" />
    <ellipse
       style="opacity:1;fill:#1eacff;fill-opacity:1;fill-rule:evenodd;stroke:#00a9f8;stroke-width:0.5;stroke-linecap:round;stroke-linejoin:round;stroke-miterlimit:4;stroke-dasharray:none;stroke-dashoffset:0;stroke-opacity:1"
       id="path4608"
       cx="17.528738"
       cy="141.89276"
       rx="1.9149041"
       ry="0.14730032" />
    <path
       style="fill:#ffffff;fill-opacity:1;fill-rule:evenodd;stroke:#000000;stroke-width:0.26458332px;stroke-linecap:butt;stroke-linejoin:miter;stroke-opacity:1"
       d="M 50.651304,103.66305 C 59.242678,88.922729 69.243149,74.19756 86.863996,59.554331 74.511032,57.619935 63.735569,51.632576 45.343283,65.214592 c -11.977238,20.477006 -0.3666,27.808686 5.308021,38.448458"
       id="path4610"
       inkscape:connector-curvature="0"
       sodipodi:nodetypes="cccc" />
    <path
       style="fill:#ffffff;fill-opacity:1;fill-rule:evenodd;stroke:none;stroke-width:0.26458332px;stroke-linecap:butt;stroke-linejoin:miter;stroke-opacity:1"
       d="m 72.076682,164.46015 c -26.694519,7.25922 -23.309834,22.58717 -19.321134,29.89307 13.792744,12.5327 24.918257,6.95008 36.57522,4.1805 17.058412,-17.98281 -0.264837,-33.9194 -17.254086,-34.07357 z"
       id="path4622"
       inkscape:connector-curvature="0"
       sodipodi:nodetypes="cccc" />
    <path
       sodipodi:nodetypes="cccc"
       inkscape:connector-curvature="0"
       id="path4624"
       d="m 128.84228,164.25184 c -26.69452,7.25922 -23.30984,22.58717 -19.32114,29.89307 13.79275,12.5327 24.91826,6.95008 36.57522,4.1805 17.05842,-17.98281 -0.26483,-33.9194 -17.25408,-34.07357 z"
       style="fill:#ffffff;fill-opacity:1;fill-rule:evenodd;stroke:none;stroke-width:0.26458332px;stroke-linecap:butt;stroke-linejoin:miter;stroke-opacity:1" />
    <path
       style="fill:#ffffff;fill-opacity:1;fill-rule:evenodd;stroke:#000000;stroke-width:0.26458332px;stroke-linecap:butt;stroke-linejoin:miter;stroke-opacity:1"
       d="m 135.73571,61.91609 c 13.1302,-14.157634 26.12675,-4.377211 35.94281,1.171 15.61065,21.749781 -3.74376,40.47594 -5.17954,43.75552 -6.91201,-17.892645 -20.5203,-30.488216 -30.76327,-44.92652 z"
       id="path4626"
       inkscape:connector-curvature="0"
       sodipodi:nodetypes="cccc" />
  </g>
  <g
     inkscape:label="Layer 1"
     inkscape:groupmode="layer"
     id="layer1">
    <path
       style="fill:none;fill-rule:evenodd;stroke:#000000;stroke-width:1.73969591;stroke-linecap:round;stroke-linejoin:round;stroke-miterlimit:4;stroke-dasharray:none;stroke-opacity:1"
       d="M 54.434593,172.63832 C 12.642174,132.90694 71.572762,63.444648 110.50969,43.223814 c 8.72674,3.119613 16.09714,9.78702 22.17949,16.092323"
       id="path4529"
       inkscape:connector-curvature="0"
       sodipodi:nodetypes="ccc" />
    <path
       style="fill:none;fill-rule:evenodd;stroke:#000000;stroke-width:1.73969591;stroke-linecap:butt;stroke-linejoin:miter;stroke-miterlimit:4;stroke-dasharray:none;stroke-opacity:1"
       d="M 50.651305,103.66305 C 26.01763,75.572197 48.162721,46.819354 86.863996,59.554333"
       id="path4533"
       inkscape:connector-curvature="0"
       sodipodi:nodetypes="cc" />
    <path
       style="fill:none;fill-rule:evenodd;stroke:#000000;stroke-width:1.73969591;stroke-linecap:round;stroke-linejoin:miter;stroke-miterlimit:4;stroke-dasharray:none;stroke-opacity:1"
       d="m 143.7697,73.408736 c 42.38659,48.016924 27.58807,73.589824 14.81569,96.325564"
       id="path4535"
       inkscape:connector-curvature="0"
       sodipodi:nodetypes="cc" />
    <path
       style="fill:none;fill-rule:evenodd;stroke:#000000;stroke-width:1.73969591;stroke-linecap:round;stroke-linejoin:miter;stroke-miterlimit:4;stroke-dasharray:none;stroke-opacity:1"
       d="m 137.53049,60.573802 c 9.98774,-10.601977 32.17603,-4.1369 38.11433,8.044128 5.49047,11.26242 -1.56225,30.389143 -9.14584,38.22468"
       id="path4537"
       inkscape:connector-curvature="0"
       sodipodi:nodetypes="csc" />
    <path
       style="fill:none;fill-rule:evenodd;stroke:#000000;stroke-width:2.78351355;stroke-linecap:round;stroke-linejoin:miter;stroke-miterlimit:4;stroke-dasharray:none;stroke-opacity:1"
       d="m 63.641015,185.28115 c 6.077052,-15.03462 23.830581,-10.33076 26.349411,-0.26477"
       id="path4539"
       inkscape:connector-curvature="0"
       sodipodi:nodetypes="cc" />
    <path
       sodipodi:nodetypes="cc"
       inkscape:connector-curvature="0"
       id="path4541"
       d="m 118.32399,184.884 c 6.07705,-15.03462 23.83058,-10.33076 26.34941,-0.26477"
       style="fill:none;fill-rule:evenodd;stroke:#000000;stroke-width:2.78351355;stroke-linecap:round;stroke-linejoin:miter;stroke-miterlimit:4;stroke-dasharray:none;stroke-opacity:1" />
    <path
       style="fill:none;fill-rule:evenodd;stroke:#000000;stroke-width:1.73969591;stroke-linecap:round;stroke-linejoin:round;stroke-miterlimit:4;stroke-dasharray:none;stroke-opacity:1"
       d="m 58.916219,202.49809 c -5.668471,7.08166 -4.563569,17.79217 -0.470195,21.95743 13.003398,13.23176 30.662982,15.05937 38.519572,-17.18328"
       id="path4543"
       inkscape:connector-curvature="0"
       sodipodi:nodetypes="csc" />
    <path
       style="fill:none;fill-rule:evenodd;stroke:#000000;stroke-width:1.73969591;stroke-linecap:butt;stroke-linejoin:round;stroke-miterlimit:4;stroke-dasharray:none;stroke-opacity:1"
       d="m 43.539331,165.70902 c -16.867312,8.32081 -37.0932139,57.67852 4.770202,63.04691 3.680706,-1.17296 4.952679,-3.85262 5.668123,-6.8804"
       id="path4545"
       inkscape:connector-curvature="0"
       sodipodi:nodetypes="ccc" />
    <path
       style="fill:none;fill-rule:evenodd;stroke:#000000;stroke-width:1.73969591;stroke-linecap:round;stroke-linejoin:round;stroke-miterlimit:4;stroke-dasharray:none;stroke-opacity:1"
       d="m 99.038126,206.39668 c 0.53599,13.35726 14.767484,26.17268 21.572864,25.25418 8.39256,-1.13271 15.49835,-9.88102 19.77667,-24.06271"
       id="path4549"
       inkscape:connector-curvature="0"
       sodipodi:nodetypes="csc" />
    <path
       style="fill:none;fill-rule:evenodd;stroke:#000000;stroke-width:1.73969591;stroke-linecap:round;stroke-linejoin:miter;stroke-miterlimit:4;stroke-dasharray:none;stroke-opacity:1"
       d="m 86.492646,234.42409 c 3.23015,-1.67203 5.83114,-4.33537 7.66695,-8.99135"
       id="path4551"
       inkscape:connector-curvature="0"
       sodipodi:nodetypes="cc" />
    <path
       style="fill:none;fill-rule:evenodd;stroke:#000000;stroke-width:1.73969591;stroke-linecap:round;stroke-linejoin:miter;stroke-miterlimit:4;stroke-dasharray:none;stroke-opacity:1"
       d="m 129.99075,231.61616 c 2.98029,-2.20133 5.32595,-4.70513 6.82545,-7.61219"
       id="path4553"
       inkscape:connector-curvature="0"
       sodipodi:nodetypes="cc" />
    <path
       style="fill:none;fill-rule:evenodd;stroke:#000000;stroke-width:1.73969591;stroke-linecap:round;stroke-linejoin:round;stroke-miterlimit:4;stroke-dasharray:none;stroke-opacity:1"
       d="m 142.848,212.22165 c 5.10772,6.28715 17.95984,14.82473 22.6305,14.89064 3.17881,-0.32099 35.16868,-23.15895 2.29032,-52.75296"
       id="path4555"
       inkscape:connector-curvature="0"
       sodipodi:nodetypes="ccc" />
    <path
       style="fill:none;fill-rule:evenodd;stroke:#000000;stroke-width:1.73969591;stroke-linecap:round;stroke-linejoin:round;stroke-miterlimit:4;stroke-dasharray:none;stroke-opacity:1"
       d="m 97.768266,177.80135 c -17.01832,-24.44292 -41.177042,-12.03995 -46.87412,2.46971 -4.963956,12.6425 5.493834,28.3973 39.65185,18.77821"
       id="path4557"
       inkscape:connector-curvature="0"
       sodipodi:nodetypes="csc" />
    <path
       style="fill:none;fill-rule:evenodd;stroke:#000000;stroke-width:1.73969591;stroke-linecap:round;stroke-linejoin:miter;stroke-miterlimit:4;stroke-dasharray:none;stroke-opacity:1"
       d="m 123.95895,200.04216 c -17.58477,-1.73663 -20.24862,-18.51305 -13.86707,-26.71728 7.73446,-9.94354 31.60787,-12.52299 42.60719,2.00509 6.42487,9.28832 -3.35289,28.62208 -23.66072,26.56559"
       id="path4559"
       inkscape:connector-curvature="0"
       sodipodi:nodetypes="cscc" />
    <ellipse
       style="fill:#ffff1e;fill-opacity:0;fill-rule:evenodd;stroke:none;stroke-width:1.73969591;stroke-linecap:round;stroke-linejoin:round;stroke-miterlimit:4;stroke-dasharray:none;stroke-dashoffset:0;stroke-opacity:0"
       id="path4561"
       cx="130.24478"
       cy="76.006439"
       rx="8.3618841"
       ry="10.414207" />
  </g>
</svg>
